<svg width="57" height="15" viewBox="0 0 57 15" fill="none" xmlns="http://www.w3.org/2000/svg">
<g id="Txt&#38;Vector" clip-path="url(#clip0_444_1222)">
<path id="Vector" d="M41.7565 1.50289C41.7565 0.949297 42.2443 0.5 42.8456 0.5H55.4029C56.0044 0.5 56.4919 0.949297 56.4919 1.50289V13.4973C56.4919 14.0511 56.0044 14.5 55.4029 14.5H42.8456C42.2443 14.5 41.7565 14.0511 41.7565 13.4975V1.5027V1.50289Z" fill="#0A66C2"/>
<path id="Vector_2" d="M0.507629 12.227H6.65713V10.3208H2.73347V3.04887H0.507629V12.227ZM9.77058 12.227V5.90531H7.54494V12.227H9.77058ZM8.65795 5.04233C9.43393 5.04233 9.91702 4.55687 9.91702 3.94985C9.90263 3.32961 9.43393 2.85791 8.67273 2.85791C7.91134 2.85791 7.41347 3.32979 7.41347 3.94985C7.41347 4.55687 7.89656 5.04233 8.64337 5.04233H8.65795ZM10.8039 12.227H13.0295V8.69657C13.0295 8.50763 13.0439 8.3187 13.1028 8.18411C13.2635 7.8066 13.6297 7.41551 14.2446 7.41551C15.0502 7.41551 15.3724 7.99536 15.3724 8.84474V12.2269H17.5977V8.60219C17.5977 6.66032 16.4996 5.75677 15.0352 5.75677C13.8347 5.75677 13.3074 6.39041 13.0145 6.82208H13.0295V5.90531H10.8039C10.8332 6.49856 10.8039 12.227 10.8039 12.227ZM20.7376 3.04887H18.5119V12.227H20.7376V10.1774L21.2938 9.51621L23.0363 12.227H25.7743L22.8461 8.30272L25.4082 5.63301H22.7291C22.7291 5.63301 20.8988 8.02143 20.7376 8.30492V3.04887Z" fill="#0A66C2"/>
<path id="Vector_3" d="M31.7259 9.59004C31.7553 9.42773 31.7993 9.11633 31.7993 8.76416C31.7993 7.13002 30.9206 5.47091 28.6072 5.47091C26.1327 5.47091 24.9905 7.31859 24.9905 8.99441C24.9905 11.067 26.3816 12.3613 28.812 12.3613C29.7786 12.3613 30.6715 12.2269 31.4039 11.9436L31.111 10.5558C30.5104 10.7439 29.8955 10.8381 29.1343 10.8381C28.0948 10.8381 27.1871 10.435 27.1138 9.57646L31.7259 9.58968V9.59004ZM27.0992 8.16853C27.1578 7.62908 27.5388 6.83312 28.4904 6.83312C29.5005 6.83312 29.735 7.68287 29.735 8.16853H27.0994H27.0992ZM37.2928 3.04889V6.2261H37.2634C36.9412 5.78139 36.2677 5.48468 35.375 5.48468C33.6616 5.48468 32.1536 6.77914 32.168 8.99055C32.168 11.0404 33.53 12.3754 35.2282 12.3754C36.1508 12.3754 37.0291 11.9976 37.4686 11.2694H37.5123L37.6004 12.2271H39.577C39.5478 11.782 39.5182 11.0134 39.5182 10.2582V3.04871H37.2926L37.2928 3.04889ZM37.2928 9.30086C37.2928 9.46244 37.2782 9.62456 37.2486 9.75897C37.1174 10.3392 36.5901 10.7433 35.9458 10.7433C35.0236 10.7433 34.423 10.0423 34.423 8.93657C34.423 7.89843 34.9359 7.06227 35.9606 7.06227C36.6487 7.06227 37.1317 7.50716 37.2636 8.05983C37.2928 8.18156 37.2928 8.31652 37.2928 8.4377V9.30067V9.30086Z" fill="#0A66C2"/>
<path id="Vector_4" d="M46.2234 12.2194V5.89762H43.9977V12.2194H46.2236H46.2234ZM45.1109 5.03464C45.8869 5.03464 46.37 4.54918 46.37 3.94252C46.3554 3.3221 45.8869 2.85022 45.1257 2.85022C44.3639 2.85022 43.8665 3.3221 43.8665 3.94252C43.8665 4.54918 44.3493 5.03464 45.0963 5.03464H45.1107H45.1109ZM47.4552 12.2194H49.6806V8.68943C49.6806 8.50068 49.6952 8.31156 49.754 8.17679C49.9148 7.7991 50.281 7.40819 50.8959 7.40819C51.7011 7.40819 52.0233 7.98785 52.0233 8.83779V12.2194H54.2488V8.59469C54.2488 6.653 53.1509 5.74944 51.6867 5.74944C50.4862 5.74944 49.9589 6.3829 49.666 6.81439H49.6808V5.8978H47.4554C47.4844 6.49087 47.4552 12.2195 47.4552 12.2195V12.2194Z" fill="white"/>
</g>
<defs>
<clipPath id="clip0_444_1222">
<rect width="56" height="14" fill="white" transform="translate(0.5 0.5)"/>
</clipPath>
</defs>
</svg>
